# xmcd CD database file
#
# Track frame offsets:
#	150
#	14265
#	40905
#	63945
#	68985
#	97725
#	116490
#	147480
#	180420
#	198885
#	215475
#
# Disc length: 3125 seconds
#
# Revision: 0
# Processed by: cddbd v1.5.2PL0 Copyright (c) Steve Scherf et al.
# Submitted via: CDex 1.70beta2
#
DISCID=940c330b
DTITLE=Glerum Omnibus - 57 Variations
DYEAR=2009
DGENRE=Jazz
TTITLE0=Impressionistic
TTITLE1=Silver Nichols
TTITLE2=Conga Cacao
TTITLE3=Low Flow
TTITLE4=Bass Sonata Part 1
TTITLE5=Omnibus Three
TTITLE6=Twill Music
TTITLE7=Train Wave
TTITLE8=Tutte Le Cose
TTITLE9=Too Much
TTITLE10=Klook
EXTD=YEAR: 2009
EXTT0=
EXTT1=
EXTT2=
EXTT3=
EXTT4=
EXTT5=
EXTT6=
EXTT7=
EXTT8=
EXTT9=
EXTT10=
PLAYORDER=
